<svg width="151" height="63" viewBox="0 0 151 63" fill="none" xmlns="http://www.w3.org/2000/svg">
<g clip-path="url(#clip0_964_17566)">
<g clip-path="url(#clip1_964_17566)">
<path d="M52.8868 22.9887C52.7701 26.6268 54.6039 28.2378 54.6492 29.261C54.6277 29.4692 54.5561 29.6693 54.4405 29.8445C54.325 30.0197 54.1688 30.165 53.9851 30.2681L51.9116 31.7072C51.6432 31.8938 51.3269 32.0007 50.9995 32.0156C50.9299 32.0124 49.6728 32.3096 47.6819 27.9021C46.4672 29.4055 44.9218 30.6133 43.1638 31.4332C41.4058 32.2531 39.482 32.6633 37.5395 32.6324C34.9022 32.7754 27.755 31.1483 28.1228 23.6039C27.8652 17.4553 33.6403 13.6357 39.613 13.9585C40.7631 13.9618 43.1121 14.018 47.2251 14.9656V12.4567C47.6608 8.20668 44.8438 4.90911 39.9661 5.40383C39.5773 5.40543 36.8235 5.32352 32.5403 7.02771C31.3481 7.57061 31.1958 7.48067 30.7989 7.48067C29.5985 7.48067 30.0926 4.03051 30.3226 3.59362C31.1666 2.56564 36.1317 0.646211 41.0045 0.673517C44.2626 0.387814 47.5032 1.38483 50.0259 3.44906C51.0514 4.5864 51.8338 5.91801 52.3257 7.3635C52.8177 8.80898 53.0091 10.3383 52.8884 11.8592L52.8868 22.9887ZM38.8873 28.1912C44.1407 28.1157 46.3649 24.9836 46.8719 23.2971C47.2704 21.6828 47.204 20.6613 47.204 18.8961C45.6375 18.5234 43.3826 18.117 40.7955 18.1138C38.3413 17.9307 33.859 19.0181 34.0339 23.2955C33.833 25.9923 35.8353 28.339 38.8873 28.1912ZM66.5752 31.8936C65.302 32.0092 64.7091 31.1129 64.5211 30.2279L56.4539 3.78155C56.2967 3.33502 56.193 2.87403 56.1428 2.40341C56.1131 2.20939 56.1622 2.01158 56.2795 1.85346C56.3967 1.69535 56.5725 1.58985 56.7681 1.56015C56.807 1.55372 56.4231 1.56015 60.3725 1.56015C61.7948 1.4188 62.2581 2.5287 62.4055 3.2258L68.1919 25.8462L73.5636 3.2258C73.6495 2.70859 74.0399 1.44771 75.6372 1.58103H78.417C78.7685 1.55212 80.2167 1.50072 80.4711 3.24668L85.8849 26.1562L91.8576 3.24668C91.9353 2.89652 92.2982 1.42041 93.9117 1.58103H97.1062C97.2439 1.56015 98.1024 1.45093 97.9567 2.95916C97.887 3.25631 98.5091 1.24694 89.4115 30.2488C89.2252 31.1338 88.6307 32.0301 87.3574 31.9144H84.3297C82.5575 32.0992 82.3032 30.3628 82.2757 30.1878L76.9039 8.1617L71.5938 30.1653C71.5679 30.3404 71.3135 32.0767 69.5397 31.892H66.5752V31.8936ZM110.877 32.7979C109.925 32.7995 105.382 32.7497 101.585 30.8238C101.207 30.665 100.885 30.3984 100.66 30.0579C100.434 29.7173 100.316 29.3181 100.32 28.9108V27.1841C100.32 25.8269 101.325 26.0758 101.751 26.2381C103.377 26.8902 104.42 27.3849 106.418 27.78C112.355 28.9895 114.966 27.4106 115.606 27.0605C117.736 25.806 117.905 22.9357 116.456 21.4467C114.759 20.0349 113.949 19.9819 107.85 18.0737C107.098 17.8665 100.77 15.8876 100.756 9.66352C100.657 5.12756 104.814 0.639785 112.018 0.676728C114.07 0.675122 119.539 1.3401 121.02 3.18564C121.238 3.52134 121.347 3.91647 121.331 4.31642V5.9403C121.331 6.65346 121.068 7.01004 120.542 7.01004C119.293 6.87191 117.077 5.2159 112.578 5.28336C111.462 5.22554 106.116 5.42953 106.356 9.29409C106.286 12.3395 110.667 13.4815 111.167 13.6132C117.074 15.3752 119.048 15.6676 121.392 18.3644C124.169 21.9382 122.672 26.1224 122.097 27.2693C119.006 33.291 111.013 32.8011 110.877 32.7979ZM117.389 49.6407C106.045 57.948 89.5767 62.3699 75.5157 62.3699C56.543 62.494 38.2098 55.5768 24.1199 42.9781C23.0621 42.032 23.9952 40.7358 25.2814 41.457C40.9113 50.322 58.6076 54.9799 76.614 54.9685C90.0607 54.897 103.361 52.1923 115.75 47.0097C117.658 46.2066 119.277 48.2625 117.389 49.6407ZM122.118 44.2936C120.667 42.4432 112.515 43.4294 108.865 43.8615C107.765 43.9852 107.579 43.0391 108.575 42.3404C115.066 37.8157 125.727 39.1119 126.952 40.633C128.175 42.1541 126.62 52.7455 120.543 57.8051C119.61 58.5873 118.718 58.1745 119.132 57.1465C120.5 53.7333 123.569 46.1455 122.118 44.2936Z" fill="#737373"/>
</g>
</g>
<defs>
<clipPath id="clip0_964_17566">
<rect width="151" height="62" fill="white" transform="translate(0 0.5)"/>
</clipPath>
<clipPath id="clip1_964_17566">
<rect width="104" height="62" fill="white" transform="translate(23.5 0.5)"/>
</clipPath>
</defs>
</svg>
