<svg width="153" height="35" viewBox="0 0 153 35" fill="none" xmlns="http://www.w3.org/2000/svg">
<g clip-path="url(#clip0_964_17554)">
<g clip-path="url(#clip1_964_17554)">
<path d="M48.2553 32.4249L54.4193 32.5526C52.2949 31.8183 50.2349 30.9244 48.2553 29.8709V32.4249ZM57.5414 31.5789V32.4249L54.4193 32.5526C60.2935 34.5479 65.6688 34.8193 69.66 33.7019C66.4574 33.7338 62.2891 33.2869 57.5414 31.5789ZM123.349 13.1901C125.908 13.1901 128 11.131 128 8.577C128 6.02301 125.924 4.6662 123.349 4.6662C120.79 4.6662 118.698 6.03897 118.698 8.577C118.698 11.115 120.774 13.1901 123.349 13.1901ZM118.682 32.4249H128V14.7864H118.682V32.4249ZM106.82 32.4249H116.139V1.25024L106.82 5.60799V32.4249ZM101.831 13.3657C98.9024 10.4606 93.7202 10.6362 93.7202 10.6362C93.7202 10.6362 88.5219 10.4606 85.6089 13.3657C82.6799 16.2709 82.9052 18.777 82.9052 21.762C82.9052 24.747 82.6799 27.2371 85.6089 30.1423C88.538 33.0474 93.7202 32.8718 93.7202 32.8718C93.7202 32.8718 98.9185 33.0474 101.831 30.1423C104.76 27.2371 104.535 24.747 104.535 21.762C104.519 18.761 104.744 16.2549 101.831 13.3657ZM95.4261 24.8427C95.4261 25.4174 95.1364 26.838 93.7041 26.838C92.2718 26.838 91.9821 25.4174 91.9821 24.8427V18.3939C91.9821 17.0052 93.1569 16.654 93.7041 16.654C94.2513 16.654 95.4261 16.9892 95.4261 18.3939V24.8427ZM78.3346 13.3657C75.4055 10.4606 70.2233 10.6362 70.2233 10.6362C70.2233 10.6362 65.0411 10.4606 62.1121 13.3657C61.8063 13.669 61.5166 13.9883 61.2591 14.3235C55.1113 9.5986 49.5911 6.90094 44.8274 4.57043V1.2662L41.2063 2.95822C32.4513 -0.569481 26.8828 0.0530559 25.5471 2.97418C25.5471 2.97418 21.5397 8.20986 35.493 20.6606V32.4249H44.8113V27.8596C43.7652 27.1892 42.7191 26.4709 41.6891 25.6887C39.3072 23.9009 37.2794 22.2409 35.5091 20.6765V15.7282C37.6174 18.0747 40.4177 20.7404 44.1032 23.7573L44.8274 24.3319V19.5751C44.8274 18.4737 45.101 16.67 46.5655 16.67C48.03 16.67 48.2714 17.7714 48.2714 19.0643V26.838C51.1683 28.7855 54.2744 30.3657 57.5575 31.5629V16.5742C57.5575 13.5892 55.401 10.6042 51.0235 10.6042C48.4807 10.5883 46.1149 11.9132 44.8274 14.1V5.4324C51.5707 8.76855 58.33 12.8549 60.905 14.7385C59.2635 17.069 59.4083 19.2239 59.4083 21.7141C59.4083 24.6991 59.183 27.1892 62.1121 30.0944C65.0411 32.9995 70.2233 32.824 70.2233 32.824C70.2233 32.824 75.4216 32.9995 78.3346 30.0944C81.2636 27.1892 81.0222 24.6991 81.0222 21.7141C81.0222 18.761 81.2636 16.2549 78.3346 13.3657ZM35.493 5.60799V15.7122C27.6553 7.01268 29.2325 3.58076 29.828 3.08592C32.0007 1.2662 35.8632 1.80892 40.1924 3.42113L35.493 5.60799ZM71.9453 24.8427C71.9453 25.4174 71.6557 26.838 70.2233 26.838C68.791 26.838 68.5013 25.4174 68.5013 24.8427V18.3939C68.5013 17.0052 69.6761 16.654 70.2233 16.654C70.7705 16.654 71.9453 16.9892 71.9453 18.3939V24.8427Z" fill="#737373"/>
</g>
</g>
<defs>
<clipPath id="clip0_964_17554">
<rect width="153" height="34" fill="white" transform="translate(0 0.5)"/>
</clipPath>
<clipPath id="clip1_964_17554">
<rect width="103" height="34" fill="white" transform="translate(25 0.5)"/>
</clipPath>
</defs>
</svg>
