<svg width="146" height="59" viewBox="0 0 146 59" fill="none" xmlns="http://www.w3.org/2000/svg">
<g clip-path="url(#clip0_964_17557)">
<path d="M31.5 0.995234H44.1121V35.0099C44.1121 40.4046 46.5437 43.6154 48.5215 44.9519C46.4627 46.761 40.2215 48.3582 35.5203 44.4955C32.7645 42.2137 31.5 38.4162 31.5 34.8795V0.995234ZM110.269 29.2729V25.6872H114.127V13.1701H109.896C108.259 5.62396 101.596 0.017334 93.6365 0.017334C84.4611 0.017334 76.9879 7.51457 76.9879 16.7557V45.9624C79.5816 46.3372 82.7266 45.9135 85.3689 43.6806C88.141 41.3988 89.3893 37.6176 89.3893 34.0646V32.9726H95.6791V20.4555H89.3893V16.6579C89.3893 11.0187 97.8514 11.0187 97.8514 16.6579V29.224C97.8514 38.4488 105.308 45.9624 114.5 45.9624V33.4941C112.149 33.4941 110.269 31.5872 110.269 29.2729ZM62.5602 13.1375V31.5546C62.5602 34.0646 58.702 34.0646 58.702 31.5546V13.1375H46.252V34.7654C46.252 38.6444 47.5488 43.5665 53.5469 45.18C59.5449 46.7773 62.9816 43.4524 62.9816 43.4524C62.6412 45.6364 60.6311 47.2499 57.324 47.5759C54.8113 47.8367 51.6178 46.9892 50.0291 46.3046V57.7624C54.098 58.9847 58.3777 59.3596 62.6088 58.5284C70.2441 57.0452 75.0588 50.64 75.0588 42.0996V13.056H62.5602V13.1375Z" fill="#737373"/>
</g>
<defs>
<clipPath id="clip0_964_17557">
<rect width="83" height="59" fill="white" transform="translate(31.5)"/>
</clipPath>
</defs>
</svg>
