<svg width="151" height="43" viewBox="0 0 151 43" fill="none" xmlns="http://www.w3.org/2000/svg">
<g clip-path="url(#clip0_964_17563)">
<g clip-path="url(#clip1_964_17563)">
<path d="M50.5552 3.79318L43.5866 5.25682L43.5544 27.9114C43.5544 32.0955 46.741 34.8 50.9736 34.8C53.3233 34.8 55.0454 34.3705 55.9949 33.8614V28.4841C55.0775 28.85 50.5713 30.1546 50.5713 25.9864V15.9318H55.9949V9.91818H50.5713L50.5552 3.79318ZM64.8947 12.0023L64.4602 9.91818H58.2802V34.2909H65.4097V17.8886C67.0996 15.6932 69.9482 16.1227 70.8655 16.4091V9.91818C69.8999 9.58409 66.5685 8.96364 64.8947 12.0023ZM79.7493 0.5L72.5714 2.01136V7.77045L79.7493 6.25909V0.5ZM31.2266 17.0932C31.2266 15.9955 32.16 15.5659 33.6568 15.55C35.8294 15.55 38.5975 16.2023 40.7702 17.3636V10.7136C38.4044 9.79091 36.0386 9.425 33.6729 9.425C27.8791 9.425 24.0166 12.4159 24.0166 17.4114C24.0166 25.2386 34.8799 23.9659 34.8799 27.3386C34.8799 28.6432 33.7372 29.0727 32.1439 29.0727C29.7782 29.0727 26.7204 28.1023 24.3224 26.8136V33.1773C26.9779 34.3068 29.6655 34.7841 32.1279 34.7841C38.0664 34.7841 42.1543 32.2705 42.1543 27.1796C42.1543 18.7636 31.2266 20.275 31.2266 17.0932ZM127.001 22.3909C127.001 15.1523 123.46 9.44091 116.668 9.44091C109.877 9.44091 105.741 15.1523 105.741 22.3432C105.741 30.8545 110.617 34.7841 117.57 34.7841C120.981 34.7841 123.54 34.0205 125.488 32.9545V27.6409C123.54 28.6114 121.303 29.2 118.471 29.2C115.687 29.2 113.24 28.2295 112.918 24.9205H126.904C126.936 24.5545 127.001 23.075 127.001 22.3909ZM112.854 19.7182C112.854 16.5364 114.834 15.2 116.62 15.2C118.374 15.2 120.241 16.5364 120.241 19.7182H112.854ZM94.6843 9.44091C91.884 9.44091 90.0815 10.7455 89.0836 11.6523L88.7135 9.90227H82.4208V42.4841L89.5665 40.9886L89.5825 33.0023C90.6125 33.75 92.1414 34.7841 94.636 34.7841C99.7538 34.7841 104.421 31.0932 104.421 22.1205C104.437 13.9114 99.7055 9.44091 94.6843 9.44091ZM92.9783 28.9296C91.3046 28.9296 90.3068 28.325 89.6147 27.5932L89.5665 17.0932C90.3068 16.2818 91.3368 15.6932 92.9783 15.6932C95.5855 15.6932 97.388 18.5886 97.388 22.2795C97.4041 26.0818 95.6338 28.9296 92.9783 28.9296ZM72.5875 34.2909H79.7654V9.91818H72.5875V34.2909Z" fill="#737373"/>
</g>
</g>
<defs>
<clipPath id="clip0_964_17563">
<rect width="151" height="42" fill="white" transform="translate(0 0.5)"/>
</clipPath>
<clipPath id="clip1_964_17563">
<rect width="103" height="42" fill="white" transform="translate(24 0.5)"/>
</clipPath>
</defs>
</svg>
